<mxfile host="app.diagrams.net" agent="Mozilla/5.0 (Windows NT 10.0; Win64; x64) AppleWebKit/537.36 (KHTML, like Gecko) Chrome/130.0.0.0 Safari/537.36" version="24.8.6">
  <diagram name="Page-1" id="HFK4JjkHFixHD8xV4KLG">
    <mxGraphModel dx="368" dy="673" grid="1" gridSize="10" guides="1" tooltips="1" connect="1" arrows="1" fold="1" page="1" pageScale="1" pageWidth="827" pageHeight="1169" math="0" shadow="0">
      <root>
        <mxCell id="0" />
        <mxCell id="1" parent="0" />
        <mxCell id="0i_-_dLoG1SzD4nl4tbC-5" style="rounded=0;orthogonalLoop=1;jettySize=auto;html=1;exitX=0.25;exitY=1;exitDx=0;exitDy=0;entryX=0.75;entryY=0;entryDx=0;entryDy=0;" edge="1" parent="1" source="0i_-_dLoG1SzD4nl4tbC-1" target="0i_-_dLoG1SzD4nl4tbC-2">
          <mxGeometry relative="1" as="geometry" />
        </mxCell>
        <mxCell id="0i_-_dLoG1SzD4nl4tbC-7" value="Start&lt;br&gt;Game" style="edgeLabel;html=1;align=center;verticalAlign=middle;resizable=0;points=[];" vertex="1" connectable="0" parent="0i_-_dLoG1SzD4nl4tbC-5">
          <mxGeometry x="0.0979" relative="1" as="geometry">
            <mxPoint x="20" y="6" as="offset" />
          </mxGeometry>
        </mxCell>
        <mxCell id="0i_-_dLoG1SzD4nl4tbC-8" style="rounded=0;orthogonalLoop=1;jettySize=auto;html=1;exitX=0.75;exitY=1;exitDx=0;exitDy=0;entryX=0.25;entryY=0;entryDx=0;entryDy=0;" edge="1" parent="1" source="0i_-_dLoG1SzD4nl4tbC-1" target="0i_-_dLoG1SzD4nl4tbC-3">
          <mxGeometry relative="1" as="geometry" />
        </mxCell>
        <mxCell id="0i_-_dLoG1SzD4nl4tbC-1" value="Host" style="rounded=1;whiteSpace=wrap;html=1;" vertex="1" parent="1">
          <mxGeometry x="260" y="320" width="70" height="40" as="geometry" />
        </mxCell>
        <mxCell id="0i_-_dLoG1SzD4nl4tbC-2" value="Player" style="rounded=1;whiteSpace=wrap;html=1;" vertex="1" parent="1">
          <mxGeometry x="180.28" y="440" width="70" height="40" as="geometry" />
        </mxCell>
        <mxCell id="0i_-_dLoG1SzD4nl4tbC-9" style="rounded=0;orthogonalLoop=1;jettySize=auto;html=1;exitX=0.5;exitY=0;exitDx=0;exitDy=0;entryX=1;entryY=1;entryDx=0;entryDy=0;" edge="1" parent="1" source="0i_-_dLoG1SzD4nl4tbC-3" target="0i_-_dLoG1SzD4nl4tbC-1">
          <mxGeometry relative="1" as="geometry" />
        </mxCell>
        <mxCell id="0i_-_dLoG1SzD4nl4tbC-3" value="Player" style="rounded=1;whiteSpace=wrap;html=1;" vertex="1" parent="1">
          <mxGeometry x="340" y="440" width="70" height="40" as="geometry" />
        </mxCell>
        <mxCell id="0i_-_dLoG1SzD4nl4tbC-4" value="" style="endArrow=classic;html=1;rounded=0;exitX=0.5;exitY=0;exitDx=0;exitDy=0;entryX=0;entryY=1;entryDx=0;entryDy=0;" edge="1" parent="1" source="0i_-_dLoG1SzD4nl4tbC-2" target="0i_-_dLoG1SzD4nl4tbC-1">
          <mxGeometry width="50" height="50" relative="1" as="geometry">
            <mxPoint x="280" y="370" as="sourcePoint" />
            <mxPoint x="330" y="320" as="targetPoint" />
          </mxGeometry>
        </mxCell>
        <mxCell id="0i_-_dLoG1SzD4nl4tbC-6" value="Join&lt;br&gt;Game" style="edgeLabel;html=1;align=center;verticalAlign=middle;resizable=0;points=[];" vertex="1" connectable="0" parent="0i_-_dLoG1SzD4nl4tbC-4">
          <mxGeometry x="0.4049" y="1" relative="1" as="geometry">
            <mxPoint x="-22" y="-3" as="offset" />
          </mxGeometry>
        </mxCell>
        <mxCell id="0i_-_dLoG1SzD4nl4tbC-10" value="&lt;font style=&quot;font-size: 6px;&quot;&gt;Name, Addr, Preferences&lt;/font&gt;" style="edgeLabel;html=1;align=center;verticalAlign=middle;resizable=0;points=[];" vertex="1" connectable="0" parent="0i_-_dLoG1SzD4nl4tbC-4">
          <mxGeometry x="-0.1418" relative="1" as="geometry">
            <mxPoint x="-36" y="-7" as="offset" />
          </mxGeometry>
        </mxCell>
        <mxCell id="0i_-_dLoG1SzD4nl4tbC-12" value="&lt;font style=&quot;font-size: 6px;&quot;&gt;Players, Session Settings, etc&lt;/font&gt;" style="edgeLabel;html=1;align=center;verticalAlign=middle;resizable=0;points=[];" vertex="1" connectable="0" parent="1">
          <mxGeometry x="283.0010399011496" y="427.9968695864945" as="geometry" />
        </mxCell>
        <mxCell id="0i_-_dLoG1SzD4nl4tbC-16" style="rounded=0;orthogonalLoop=1;jettySize=auto;html=1;exitX=0.25;exitY=1;exitDx=0;exitDy=0;entryX=0.75;entryY=0;entryDx=0;entryDy=0;" edge="1" parent="1" source="0i_-_dLoG1SzD4nl4tbC-13" target="0i_-_dLoG1SzD4nl4tbC-14">
          <mxGeometry relative="1" as="geometry" />
        </mxCell>
        <mxCell id="0i_-_dLoG1SzD4nl4tbC-17" value="Proposed&lt;div&gt;Move&lt;/div&gt;" style="edgeLabel;html=1;align=center;verticalAlign=middle;resizable=0;points=[];" vertex="1" connectable="0" parent="0i_-_dLoG1SzD4nl4tbC-16">
          <mxGeometry x="-0.2095" relative="1" as="geometry">
            <mxPoint x="33" y="-2" as="offset" />
          </mxGeometry>
        </mxCell>
        <mxCell id="0i_-_dLoG1SzD4nl4tbC-26" value="&lt;span style=&quot;font-size: 6px;&quot;&gt;Coordinates&lt;/span&gt;" style="edgeLabel;html=1;align=center;verticalAlign=middle;resizable=0;points=[];" vertex="1" connectable="0" parent="0i_-_dLoG1SzD4nl4tbC-16">
          <mxGeometry x="-0.3163" relative="1" as="geometry">
            <mxPoint x="31" y="19" as="offset" />
          </mxGeometry>
        </mxCell>
        <mxCell id="0i_-_dLoG1SzD4nl4tbC-21" style="rounded=0;orthogonalLoop=1;jettySize=auto;html=1;exitX=0.75;exitY=1;exitDx=0;exitDy=0;entryX=0.25;entryY=0;entryDx=0;entryDy=0;" edge="1" parent="1" source="0i_-_dLoG1SzD4nl4tbC-13" target="0i_-_dLoG1SzD4nl4tbC-15">
          <mxGeometry relative="1" as="geometry" />
        </mxCell>
        <mxCell id="0i_-_dLoG1SzD4nl4tbC-13" value="Player Drawing" style="rounded=1;whiteSpace=wrap;html=1;" vertex="1" parent="1">
          <mxGeometry x="260" y="540" width="70" height="40" as="geometry" />
        </mxCell>
        <mxCell id="0i_-_dLoG1SzD4nl4tbC-18" style="rounded=0;orthogonalLoop=1;jettySize=auto;html=1;exitX=0.5;exitY=0;exitDx=0;exitDy=0;entryX=0;entryY=1;entryDx=0;entryDy=0;" edge="1" parent="1" source="0i_-_dLoG1SzD4nl4tbC-14" target="0i_-_dLoG1SzD4nl4tbC-13">
          <mxGeometry relative="1" as="geometry" />
        </mxCell>
        <mxCell id="0i_-_dLoG1SzD4nl4tbC-25" value="&lt;span style=&quot;font-size: 6px;&quot;&gt;Is move valid, game state, etc&lt;/span&gt;" style="edgeLabel;html=1;align=center;verticalAlign=middle;resizable=0;points=[];" vertex="1" connectable="0" parent="0i_-_dLoG1SzD4nl4tbC-18">
          <mxGeometry x="-0.0596" y="3" relative="1" as="geometry">
            <mxPoint x="-57" y="20" as="offset" />
          </mxGeometry>
        </mxCell>
        <mxCell id="0i_-_dLoG1SzD4nl4tbC-27" value="Validation" style="edgeLabel;html=1;align=center;verticalAlign=middle;resizable=0;points=[];" vertex="1" connectable="0" parent="0i_-_dLoG1SzD4nl4tbC-18">
          <mxGeometry x="-0.0801" relative="1" as="geometry">
            <mxPoint x="-37" y="8" as="offset" />
          </mxGeometry>
        </mxCell>
        <mxCell id="0i_-_dLoG1SzD4nl4tbC-14" value="Player" style="rounded=1;whiteSpace=wrap;html=1;" vertex="1" parent="1">
          <mxGeometry x="180.28" y="640" width="70" height="40" as="geometry" />
        </mxCell>
        <mxCell id="0i_-_dLoG1SzD4nl4tbC-22" style="rounded=0;orthogonalLoop=1;jettySize=auto;html=1;exitX=0.5;exitY=0;exitDx=0;exitDy=0;entryX=1;entryY=1;entryDx=0;entryDy=0;" edge="1" parent="1" source="0i_-_dLoG1SzD4nl4tbC-15" target="0i_-_dLoG1SzD4nl4tbC-13">
          <mxGeometry relative="1" as="geometry" />
        </mxCell>
        <mxCell id="0i_-_dLoG1SzD4nl4tbC-15" value="Player" style="rounded=1;whiteSpace=wrap;html=1;" vertex="1" parent="1">
          <mxGeometry x="330" y="640" width="70" height="40" as="geometry" />
        </mxCell>
      </root>
    </mxGraphModel>
  </diagram>
</mxfile>
